<?xml version="1.0" standalone="no"?>
<!DOCTYPE svg PUBLIC "-//W3C//DTD SVG 20010904//EN"
 "http://www.w3.org/TR/2001/REC-SVG-20010904/DTD/svg10.dtd">
<svg version="1.0" xmlns="http://www.w3.org/2000/svg"
 width="1189.000000pt" height="1189.000000pt" viewBox="0 0 1189.000000 1189.000000"
 preserveAspectRatio="xMidYMid meet">
<metadata>
Created by potrace 1.14, written by Peter Selinger 2001-2017
</metadata>
<g transform="translate(0.000000,1189.000000) scale(0.100000,-0.100000)"
fill="#000000" stroke="none">
<path d="M5769 10789 c-8 -5 -10 -9 -5 -9 5 0 -2 -10 -15 -23 -20 -19 -80 -86
-156 -173 -52 -60 -140 -161 -158 -179 -11 -12 -44 -51 -74 -86 -30 -35 -62
-71 -70 -80 -9 -9 -41 -44 -71 -79 -30 -35 -64 -73 -75 -84 -11 -12 -47 -53
-80 -91 -33 -39 -74 -86 -92 -105 -17 -19 -41 -46 -53 -60 -12 -14 -46 -52
-75 -85 l-53 -61 -259 2 c-142 1 -625 5 -1073 8 -448 4 -1067 9 -1375 11 -308
2 -874 7 -1258 10 l-698 5 -8 -22 c-5 -13 -5 -24 0 -26 5 -2 7 -7 5 -10 -2 -4
16 -7 40 -7 24 0 44 4 44 8 0 5 5 5 11 1 16 -9 149 -11 149 -1 0 5 5 5 12 1
19 -12 78 -11 78 1 0 7 3 7 8 0 4 -6 108 -11 277 -11 972 -5 1927 -13 1932
-17 3 -3 15 -2 28 3 13 5 25 7 27 4 4 -4 873 -12 1759 -18 l247 -1 -52 -60
c-28 -33 -67 -78 -87 -100 -20 -22 -47 -52 -60 -67 -130 -147 -129 -146 -169
-153 -22 -4 -40 -10 -40 -15 0 -5 -8 -7 -17 -5 -10 1 -22 0 -28 -4 -5 -3 -14
-6 -20 -7 -5 -1 -39 -11 -75 -22 -75 -24 -450 -133 -465 -136 -5 -1 -16 -5
-22 -9 -7 -5 -13 -6 -13 -3 0 3 -12 1 -27 -5 -30 -12 -59 -19 -83 -22 -8 -1
-17 -5 -20 -8 -3 -3 -25 -11 -50 -18 -25 -6 -53 -14 -62 -16 -10 -3 -27 -7
-38 -9 -11 -3 -25 -8 -32 -12 -6 -4 -21 -8 -32 -10 -12 -1 -49 -12 -83 -23
-34 -11 -78 -23 -98 -27 -19 -3 -35 -9 -35 -13 0 -4 -9 -7 -21 -8 -11 -1 -64
-15 -117 -31 -53 -17 -131 -40 -172 -51 -41 -12 -93 -27 -115 -34 -22 -7 -42
-12 -45 -12 -3 -1 -21 -6 -40 -12 -108 -35 -186 -57 -194 -55 -4 2 -14 -2 -21
-8 -7 -6 -17 -10 -21 -9 -18 4 -74 -14 -74 -23 0 -5 -6 -8 -12 -5 -7 2 -28 -2
-46 -9 -18 -7 -36 -13 -40 -13 -23 -1 -102 -26 -102 -33 0 -4 4 -8 9 -8 4 0
20 -11 35 -25 14 -13 26 -21 26 -17 0 4 4 2 8 -4 4 -5 30 -26 57 -45 28 -18
52 -36 55 -39 3 -3 37 -28 75 -55 39 -27 72 -53 73 -57 2 -4 10 -8 18 -8 8 0
17 -7 20 -15 4 -8 10 -15 15 -15 4 0 39 -23 76 -50 37 -28 79 -58 92 -68 14
-9 43 -31 65 -47 23 -17 53 -38 67 -47 14 -9 34 -24 43 -33 9 -9 16 -14 16
-10 0 3 6 1 13 -5 45 -39 65 -54 90 -68 15 -9 27 -20 27 -24 0 -4 6 -8 14 -8
8 0 16 -4 18 -8 1 -4 31 -27 66 -51 34 -24 62 -46 62 -48 0 -3 -6 -10 -12 -17
-7 -7 -38 -41 -68 -76 -30 -34 -68 -77 -85 -95 -40 -43 -118 -135 -127 -148
-7 -11 -65 -12 -263 -2 -66 4 -142 7 -170 9 -27 1 -56 5 -62 9 -7 5 -13 5 -13
0 0 -4 -17 -7 -37 -6 -21 1 -38 2 -38 3 0 2 -210 10 -400 15 -361 10 -1104 26
-1145 24 -111 -4 -140 -3 -140 4 0 5 -5 5 -11 2 -6 -4 -36 -7 -67 -6 -90 2
-116 1 -137 -3 -11 -2 -28 1 -37 5 -9 5 -19 5 -22 1 -3 -5 -25 -6 -48 -2 -24
3 -54 3 -68 0 -14 -4 -37 -3 -52 1 -17 5 -30 3 -36 -4 -4 -7 -7 -236 -7 -509
2 -477 1 -498 -17 -498 -17 0 -18 -25 -18 -620 0 -613 0 -620 20 -620 18 0 20
-7 21 -75 0 -41 1 -88 2 -103 0 -15 -3 -33 -7 -40 -4 -7 -4 -12 1 -12 12 0 10
-84 -2 -92 -7 -5 -7 -8 0 -8 7 0 10 -283 10 -829 0 -782 1 -830 18 -835 9 -2
17 -1 17 3 0 9 37 8 45 -1 3 -3 24 -2 48 2 23 5 49 5 57 1 19 -8 42 -8 57 2 6
4 14 3 18 -2 3 -7 15 -7 30 -1 13 5 27 5 29 1 3 -5 25 -5 48 -1 25 5 50 4 61
-1 9 -6 22 -7 27 -4 11 7 109 8 150 2 14 -2 30 1 37 5 6 5 14 5 17 -1 4 -7 15
-7 31 -1 13 5 27 5 29 1 3 -5 25 -5 48 -1 24 5 50 5 58 1 19 -8 42 -8 57 2 6
4 14 3 18 -2 3 -7 15 -7 30 -1 13 5 27 5 29 1 3 -5 25 -5 48 -1 24 5 50 4 59
-1 9 -4 19 -5 23 -2 4 4 -4 -18 -17 -47 -35 -79 -46 -143 -42 -240 3 -92 11
-124 56 -215 37 -78 131 -178 202 -214 15 -8 25 -16 23 -18 -2 -2 -312 -3
-690 -3 l-686 0 0 -140 0 -140 118 -1 c64 0 150 0 190 0 41 -1 76 2 79 5 3 3
14 1 25 -5 13 -7 23 -7 32 0 7 6 15 9 17 6 7 -7 399 -8 406 -1 3 3 14 1 25 -5
13 -7 23 -7 32 0 7 6 15 9 18 6 6 -7 1359 -8 1365 -1 3 3 14 1 25 -5 13 -7 23
-7 32 0 7 6 15 9 17 6 7 -7 399 -8 406 -1 3 3 14 1 25 -5 13 -7 23 -7 32 0 7
6 15 9 18 6 6 -7 1359 -8 1365 -1 3 3 14 1 25 -5 10 -5 23 -7 30 -3 6 4 45 6
87 5 85 -2 81 1 211 -150 30 -35 60 -69 65 -75 6 -6 39 -45 75 -86 36 -41 72
-81 80 -90 8 -9 40 -45 70 -80 30 -35 64 -74 75 -86 11 -12 39 -44 62 -70 23
-27 56 -65 73 -84 17 -19 45 -52 63 -74 18 -21 43 -50 57 -65 26 -29 115 -130
147 -167 32 -37 137 -156 174 -197 l36 -40 29 34 c16 18 45 51 65 73 20 23 45
52 57 66 30 36 50 59 112 130 30 35 63 72 73 84 50 59 94 110 112 130 11 12
40 47 65 76 25 30 52 61 60 70 8 9 40 45 70 80 30 36 64 74 75 86 11 12 36 41
54 64 19 23 40 48 46 54 6 6 69 79 140 161 71 83 136 150 145 151 8 1 20 2 25
4 6 1 13 2 17 1 27 -4 1361 -1 1365 3 3 3 14 1 25 -5 13 -7 23 -7 32 0 7 6 15
9 17 6 7 -7 399 -8 406 -1 3 3 14 1 25 -5 13 -7 23 -7 32 0 7 6 15 9 18 6 6
-7 1359 -8 1365 -1 3 3 14 1 25 -5 13 -7 23 -7 32 0 7 6 15 9 17 6 7 -7 399
-8 406 -1 3 3 14 1 25 -5 13 -7 23 -7 32 0 7 6 15 9 18 6 7 -7 1122 -7 1140 0
12 5 14 14 8 41 -5 20 -4 34 1 34 6 0 5 9 -1 20 -6 11 -7 20 -2 20 4 0 5 27 2
60 -3 33 -3 60 1 60 4 0 5 9 2 20 -5 20 -11 20 -494 18 -269 -2 -489 0 -489 4
0 4 -6 5 -14 2 -18 -7 -146 -10 -146 -4 0 3 -100 4 -222 2 l-223 -2 30 20 c17
10 39 25 49 32 75 49 166 179 197 280 30 97 17 257 -30 363 l-19 43 97 -5
c236 -12 528 -2 651 23 14 3 45 7 70 10 25 3 52 9 60 14 8 4 36 11 62 14 26 4
50 11 53 17 4 5 10 7 15 4 5 -3 11 -1 15 5 3 5 13 10 22 10 19 0 170 72 202
96 62 48 133 129 161 184 17 33 30 62 30 65 0 3 0 6 1 8 13 43 16 134 7 202
-10 74 -55 213 -77 239 -9 10 -15 20 -13 22 3 5 -39 95 -48 104 -3 3 -14 22
-25 43 -11 20 -22 37 -26 37 -4 0 -12 13 -18 28 -6 15 -23 41 -37 57 -14 17
-33 42 -42 58 -9 15 -20 27 -24 27 -4 0 -8 5 -8 10 0 9 -30 47 -67 86 -7 7
-13 15 -13 19 0 3 -10 16 -22 29 -13 13 -57 61 -98 106 -202 225 -750 740
-787 740 -7 0 -13 4 -13 8 0 5 -21 24 -47 42 -27 19 -50 37 -53 41 -12 15
-315 212 -430 279 -109 64 -558 297 -578 300 -9 2 -70 28 -94 41 -10 5 -25 9
-33 9 -8 0 -15 5 -15 10 0 6 -9 10 -20 10 -11 0 -20 5 -20 11 0 5 -4 8 -9 5
-4 -3 -17 1 -27 9 -10 8 -28 15 -39 15 -12 0 -25 4 -30 9 -14 12 -363 147
-400 155 -5 1 -14 4 -20 7 -8 5 -76 30 -95 34 -6 2 -22 7 -70 24 -19 7 -39 13
-45 14 -5 2 -16 6 -23 11 -7 4 -23 9 -35 11 -12 1 -42 9 -67 18 -25 8 -85 27
-135 42 -49 15 -106 32 -125 38 -42 13 -61 18 -77 19 -7 1 -11 4 -8 7 3 3 166
4 363 2 196 -1 482 -3 635 -5 186 -1 277 2 277 9 0 5 -19 31 -43 56 -23 26
-64 73 -92 105 -27 32 -58 66 -67 76 -10 10 -16 18 -14 18 5 0 -57 71 -101
117 -12 13 -26 29 -30 37 -4 7 -28 36 -53 64 -25 27 -54 60 -64 73 -11 13 -45
53 -76 89 -31 36 -65 76 -76 89 -10 13 -35 41 -54 62 -19 22 -39 45 -45 52 -5
7 -35 42 -66 77 -30 36 -64 76 -75 89 -35 43 -99 115 -126 143 -14 16 -25 28
-22 28 2 0 -4 8 -13 18 -10 10 -36 39 -58 66 -22 26 -51 60 -65 75 -14 15 -41
47 -60 71 -19 24 -40 48 -46 54 -5 6 -39 45 -74 86 -36 41 -69 80 -75 86 -6 6
-27 30 -46 54 -44 54 -53 65 -116 136 -67 76 -84 96 -125 146 -18 23 -47 56
-65 74 -17 18 -35 39 -40 47 -4 9 -26 35 -48 59 -22 24 -62 70 -90 103 -48 58
-62 74 -122 142 -15 17 -52 61 -82 97 -30 36 -58 66 -63 66 -4 0 -8 5 -8 10 0
6 -10 21 -22 34 -13 12 -42 45 -65 72 -23 27 -50 59 -60 70 -10 12 -34 41 -53
64 -19 24 -41 49 -47 56 -7 7 -13 15 -13 17 0 8 887 0 899 -7 6 -4 11 -3 11 1
0 9 159 7 168 -1 2 -3 15 -1 28 4 15 6 26 6 30 -1 4 -7 10 -7 18 0 7 6 15 8
19 5 5 -5 361 -9 1828 -18 267 -2 491 -6 498 -10 6 -4 11 -3 11 1 0 9 104 8
119 -1 5 -4 12 -2 16 4 4 7 12 7 25 0 13 -7 21 -7 25 0 5 8 11 7 21 -1 11 -9
14 -9 14 0 0 7 5 9 12 5 17 -11 58 -11 58 -1 0 4 5 5 12 1 14 -9 132 -9 146 0
6 3 13 3 15 -1 3 -5 196 -8 429 -8 270 0 426 -4 430 -10 5 -7 8 -7 8 0 0 6 27
9 64 8 l64 -2 4 30 c5 30 4 31 -29 27 -18 -2 -33 -2 -33 2 0 3 -251 6 -558 7
-462 2 -1439 8 -2572 17 -118 1 -220 5 -226 8 -6 4 -14 4 -18 1 -10 -10 -146
-10 -146 1 0 5 -5 5 -12 0 -15 -11 -68 -11 -85 -1 -6 4 -14 4 -17 -1 -3 -5
-24 -7 -48 -5 -67 6 -157 5 -168 -2 -6 -3 -10 -3 -10 2 0 4 -233 8 -517 8
-284 0 -534 2 -554 3 -40 4 -56 16 -109 82 -19 24 -47 57 -62 72 -16 16 -28
31 -28 34 0 3 -10 15 -22 28 -13 12 -43 47 -68 76 -59 71 -100 118 -127 147
-13 13 -23 26 -23 29 0 3 -10 15 -22 28 -23 23 -97 108 -133 154 -11 13 -39
45 -62 70 -24 24 -43 47 -43 51 0 3 -20 27 -43 52 -23 25 -62 70 -87 99 -25
30 -56 67 -70 82 -14 15 -43 50 -65 77 -45 56 -56 63 -76 50z m-3521 -7498
c20 4 43 5 51 1 20 -9 42 -9 58 1 6 4 14 3 18 -2 3 -7 15 -7 30 -1 13 5 27 5
29 1 3 -5 25 -5 48 -1 24 5 50 5 58 1 19 -8 42 -8 57 2 6 4 14 3 18 -2 3 -7
15 -7 30 -1 13 5 27 5 29 1 3 -5 25 -5 48 -1 24 5 50 4 59 -1 9 -4 29 -5 45
-1 16 5 40 6 54 5 32 -5 91 -3 100 2 3 2 12 0 20 -5 7 -4 23 -5 35 0 12 5 27
5 34 0 7 -4 28 -4 46 0 18 4 39 4 45 0 7 -4 26 -4 41 0 16 5 31 5 34 1 2 -5
24 -5 47 -1 24 5 50 5 58 1 19 -8 42 -8 57 2 6 4 14 3 18 -2 3 -6 15 -7 29 -1
12 4 29 4 36 0 8 -5 17 -7 20 -5 9 6 71 7 93 3 17 -4 69 -56 134 -135 17 -21
47 -54 65 -75 18 -20 51 -58 73 -84 22 -26 49 -57 60 -68 16 -17 88 -99 160
-183 60 -69 115 -132 138 -155 15 -16 27 -31 27 -33 0 -3 -263 -6 -585 -7
-322 -2 -585 0 -585 4 0 4 -6 5 -14 2 -18 -7 -146 -10 -146 -4 0 3 -180 3
-400 0 -220 -3 -400 -2 -400 2 0 4 -6 5 -14 2 -21 -8 -146 -10 -146 -2 0 4
-13 3 -30 -2 -16 -5 -30 -6 -30 -2 0 7 65 52 75 52 17 0 127 129 152 178 27
52 34 72 50 137 19 81 8 249 -19 283 -6 6 -8 12 -4 12 4 0 -3 18 -14 39 l-20
40 33 3 c17 2 38 1 46 -3 7 -3 30 -3 49 2z m5430 0 c26 4 54 4 62 0 19 -8 42
-8 57 2 6 4 14 3 18 -2 3 -7 15 -7 30 -1 13 5 27 5 29 1 3 -5 25 -5 48 -1 24
5 50 5 58 1 19 -8 42 -8 57 2 6 4 14 3 18 -2 3 -7 15 -7 30 -1 13 5 27 5 29 1
3 -5 25 -5 48 -1 25 5 50 4 61 -1 9 -6 22 -7 27 -4 11 7 109 8 150 2 14 -2 30
1 37 5 6 5 14 5 17 -1 4 -7 15 -7 31 -1 13 5 27 5 29 1 3 -5 25 -5 48 -1 24 5
50 5 58 1 19 -8 42 -8 57 2 6 4 14 3 18 -2 3 -7 15 -7 30 -1 13 5 27 5 29 1 3
-5 25 -5 48 -1 24 5 50 4 60 -1 9 -5 23 -6 31 -4 21 9 98 12 103 4 2 -3 23 -3
46 1 24 5 50 5 58 1 19 -8 42 -8 57 2 6 4 14 3 18 -2 3 -6 15 -7 29 -1 12 4
29 5 36 0 7 -4 26 -4 41 0 16 5 31 5 34 1 2 -5 24 -5 47 -1 24 5 50 5 58 0 8
-5 23 -4 33 1 17 10 17 8 1 -28 -9 -21 -17 -46 -18 -55 0 -10 -3 -18 -7 -18
-7 0 -20 -57 -25 -105 -1 -11 -3 -24 -4 -30 -1 -5 -1 -12 0 -15 1 -3 3 -27 5
-55 2 -27 6 -66 10 -85 9 -44 56 -150 67 -150 4 0 8 -6 8 -14 0 -21 110 -129
158 -156 23 -13 40 -26 38 -29 -2 -3 -612 -4 -1356 -1 -744 3 -1354 2 -1356
-2 -3 -4 -11 -5 -19 -2 -11 5 -12 9 -2 18 6 7 30 34 52 60 50 60 59 70 120
140 28 32 68 79 90 104 22 26 50 57 63 70 12 12 22 24 22 26 0 4 25 33 88 104
18 20 67 78 110 129 77 91 95 105 120 93 8 -4 35 -3 60 1z"/>
</g>
</svg>
