<svg id="b3345313-68d8-4b87-a7b9-4f9ca9cff979" data-name="Ebene 1" xmlns="http://www.w3.org/2000/svg" viewBox="0 0 1189 991"><defs><style>.ad09566f-a66f-4884-9aae-24009dd51000,.b195419a-fb38-46e3-8419-ba2ec8df31ba,.b1b14659-9283-402b-896a-5afb3a6a2c81,.b38a03e1-c929-4766-aea3-52687ce81330,.b5be55b0-7ffb-4d94-a2d0-1efdc397d77c,.b8a1249d-05ca-4f57-a7af-b1d6b42815a2,.eaa9abd7-5eb2-47a4-b027-b7eb724c9df9,.f0a3eeab-dc17-49dc-a1d5-44df15eecc38,.f0b405b3-dbf8-4cb5-8d33-c16cd447a8f7,.fe3e7c46-998b-4f28-a122-2a31003cd771{stroke:#000;stroke-miterlimit:10;}.b1b14659-9283-402b-896a-5afb3a6a2c81,.b38a03e1-c929-4766-aea3-52687ce81330{fill:#b3b3b3;}.b38a03e1-c929-4766-aea3-52687ce81330,.b8a1249d-05ca-4f57-a7af-b1d6b42815a2{stroke-width:7px;}.b1b14659-9283-402b-896a-5afb3a6a2c81{stroke-width:8px;}.b5be55b0-7ffb-4d94-a2d0-1efdc397d77c,.eaa9abd7-5eb2-47a4-b027-b7eb724c9df9{fill:#999;}.b5be55b0-7ffb-4d94-a2d0-1efdc397d77c{stroke-width:4px;}.eaa9abd7-5eb2-47a4-b027-b7eb724c9df9{stroke-width:5px;}.b195419a-fb38-46e3-8419-ba2ec8df31ba,.b8a1249d-05ca-4f57-a7af-b1d6b42815a2{fill:#fff;}.addabcc3-8c4e-4e36-ab34-31c700e4f088,.fe3e7c46-998b-4f28-a122-2a31003cd771{fill:#333;}.b195419a-fb38-46e3-8419-ba2ec8df31ba,.f0a3eeab-dc17-49dc-a1d5-44df15eecc38,.fe3e7c46-998b-4f28-a122-2a31003cd771{stroke-width:6px;}.f0b405b3-dbf8-4cb5-8d33-c16cd447a8f7{fill:#e6e6e6;stroke-width:3px;}.e5be8888-5aea-4691-b3c1-6144d0722f2e{fill:#c1272d;}.f3ebb902-3796-4a4a-a934-2849e8cf887e{fill:#009245;}</style></defs><rect class="ad09566f-a66f-4884-9aae-24009dd51000" x="5.5" y="835.5" width="1168" height="27"/><circle class="b38a03e1-c929-4766-aea3-52687ce81330" cx="166.5" cy="787.5" r="49"/><circle class="b1b14659-9283-402b-896a-5afb3a6a2c81" cx="992.5" cy="787.5" r="48.5"/><circle class="b5be55b0-7ffb-4d94-a2d0-1efdc397d77c" cx="167.5" cy="791.5" r="19"/><circle class="eaa9abd7-5eb2-47a4-b027-b7eb724c9df9" cx="992.5" cy="787.5" r="19"/><path class="b8a1249d-05ca-4f57-a7af-b1d6b42815a2" d="M11.5,757.5h1027s117,12.26,138.28-36.56c21.44-49.23-68.78-131.41-106.28-165.44q-3.24-2.94-6.59-5.83C1011.66,504.53,940.86,469,859.35,441,600.57,352.18,233.9,339.85,10.5,340.5"/><path class="fe3e7c46-998b-4f28-a122-2a31003cd771" d="M278,559H10V441H278S484,493,278,559Z"/><polygon class="f0b405b3-dbf8-4cb5-8d33-c16cd447a8f7" points="208.27 584.59 559.27 583.41 910.27 582.24 735.45 784.73 560.62 987.23 384.45 785.91 208.27 584.59"/><path class="e5be8888-5aea-4691-b3c1-6144d0722f2e" d="M355.1,598.34H371V711.93H355.1Zm8,98.44h65v15.15h-65Z"/><path class="e5be8888-5aea-4691-b3c1-6144d0722f2e" d="M458.3,709a27.29,27.29,0,0,1-11.44-12.07q-3.94-7.92-3.95-19.1v-13.2q0-11,3.95-18.87a27.16,27.16,0,0,1,11.44-12q7.5-4.11,18.05-4.1t18,4.1a27.16,27.16,0,0,1,11.44,12q3.95,7.86,4,18.87V678q0,11.09-4,18.94a27.36,27.36,0,0,1-11.44,12q-7.5,4.14-18,4.14T458.3,709Zm31-16.25q4.58-5.24,4.57-14.68V664.59q0-9.45-4.57-14.61t-12.93-5.16q-8.36,0-12.93,5.16t-4.57,14.61V678q0,9.45,4.57,14.68T476.35,698Q484.71,698,489.28,692.71Z"/><path class="e5be8888-5aea-4691-b3c1-6144d0722f2e" d="M522.29,630.84h16.64l14.37,57.89,20.24-57.89h11.09l20.23,57.89,14.38-57.89h16.64l-25,81.09h-12l-19.77-56-19.76,56h-12Z"/><path class="e5be8888-5aea-4691-b3c1-6144d0722f2e" d="M665.49,708.88a28.18,28.18,0,0,1-12.15-12.38q-4.19-8.16-4.18-19.72v-9.15q0-12,4-20.54a28.84,28.84,0,0,1,11.68-13q7.67-4.46,18.44-4.45,10.16,0,17.35,5.07t11,14.69q3.79,9.62,3.79,23.05v5.31H660.72V665h39.53q-.69-9.91-5.11-15.43A14.41,14.41,0,0,0,683.3,644q-9.06,0-14,5.94t-5,16.8v10.31q0,10.08,5.31,15.47T684.71,698a25,25,0,0,0,9.61-2,27.78,27.78,0,0,0,8.51-5.46L713.3,701a44,44,0,0,1-13.51,9,38.5,38.5,0,0,1-15.08,3.16Q673.46,713.1,665.49,708.88Z"/><path class="e5be8888-5aea-4691-b3c1-6144d0722f2e" d="M737.29,630.84h15.93v81.09H737.29Zm39.29,15.31a19.34,19.34,0,0,0-7.42-1.33q-7.57,0-11.76,4.18t-4.18,11.6L751.58,645a29.7,29.7,0,0,1,9.69-11.29,22.91,22.91,0,0,1,13.13-4,29.64,29.64,0,0,1,10,1.6,22.52,22.52,0,0,1,7.86,4.72L781.9,650.06A13.4,13.4,0,0,0,776.58,646.15Z"/><polyline class="b195419a-fb38-46e3-8419-ba2ec8df31ba" points="382.96 353.83 217 234 585 126.42"/><rect class="f0a3eeab-dc17-49dc-a1d5-44df15eecc38" x="498" y="125" width="130" height="24"/><line class="b195419a-fb38-46e3-8419-ba2ec8df31ba" x1="12" y1="122" x2="1180" y2="131"/><polygon class="f0b405b3-dbf8-4cb5-8d33-c16cd447a8f7" points="927 418 576.01 415.61 225.01 413.23 401.88 212.52 578.75 11.81 752.88 214.9 927 418"/><path class="f3ebb902-3796-4a4a-a934-2849e8cf887e" d="M359.67,262.19h15.94V375.78H359.67Zm9.92,50.08h63.05v15.15H369.59Zm54.61-50.08h15.94V375.78H424.2Z"/><path class="f3ebb902-3796-4a4a-a934-2849e8cf887e" d="M466.7,262.19h15.94v15.94H466.7Zm0,32.5h15.94v81.09H466.7Z"/><path class="f3ebb902-3796-4a4a-a934-2849e8cf887e" d="M517.37,373.32A24.32,24.32,0,0,1,507.8,362q-3.29-7.41-3.28-17.81V326.33q0-10.47,3.2-17.89a24.22,24.22,0,0,1,9.33-11.29,27,27,0,0,1,14.73-3.87A24.26,24.26,0,0,1,544.94,297a27.64,27.64,0,0,1,9.65,10.55L553,324.14a19.22,19.22,0,0,0-1.87-8.83,12.79,12.79,0,0,0-5.43-5.58,18,18,0,0,0-8.63-1.92q-7.9,0-12.23,4.93t-4.34,13.82v17.66q0,8.83,4.34,13.63T537,362.66a17.51,17.51,0,0,0,8.63-2,13.19,13.19,0,0,0,5.43-5.75,19.88,19.88,0,0,0,1.87-9l1.1,17.11a23.15,23.15,0,0,1-7.93,10.08,22.28,22.28,0,0,1-13.56,4.06A28.41,28.41,0,0,1,517.37,373.32Zm.31,32a26.16,26.16,0,0,1-11.21-9.57L517.25,386a22.3,22.3,0,0,0,7.46,6.64,18.89,18.89,0,0,0,9.1,2.34q9.15,0,14.14-5t5-14.26v-81h15.94v78.67q0,11.17-4.1,19.14a27.78,27.78,0,0,1-11.92,12.11q-7.8,4.14-18.82,4.14A38,38,0,0,1,517.68,405.35Z"/><path class="f3ebb902-3796-4a4a-a934-2849e8cf887e" d="M593.11,262.19h15.94V375.78H593.11Zm49.22,64.45q0-8.59-4.45-13.28t-12.5-4.69q-7.82,0-12.08,4.07t-4.25,11.48l-1.64-15.62a28.8,28.8,0,0,1,9.8-11.14,24,24,0,0,1,13.4-3.94q13.2,0,20.43,8.63t7.23,24.41v49.22H642.33Z"/><path class="f3ebb902-3796-4a4a-a934-2849e8cf887e" d="M696.47,372.74a28.25,28.25,0,0,1-12.15-12.39q-4.19-8.16-4.18-19.72v-9.14q0-12,4-20.55a28.84,28.84,0,0,1,11.68-13q7.67-4.46,18.44-4.45,10.15,0,17.35,5.08t11,14.68q3.79,9.62,3.79,23.05v5.31H691.7V328.83h39.53q-.69-9.91-5.11-15.43a14.41,14.41,0,0,0-11.84-5.51q-9.06,0-14,5.94t-5,16.8v10.31q0,10.08,5.31,15.47t15.08,5.39a25.2,25.2,0,0,0,9.61-1.95,28,28,0,0,0,8.51-5.47l10.47,10.47a44.17,44.17,0,0,1-13.51,8.94A38.5,38.5,0,0,1,715.69,377Q704.44,377,696.47,372.74Z"/><path class="f3ebb902-3796-4a4a-a934-2849e8cf887e" d="M768.27,294.69H784.2v81.09H768.27ZM807.56,310a19.34,19.34,0,0,0-7.42-1.33q-7.57,0-11.76,4.18t-4.18,11.6l-1.64-15.62a29.78,29.78,0,0,1,9.69-11.29,22.91,22.91,0,0,1,13.13-4,29.64,29.64,0,0,1,10,1.6,22.4,22.4,0,0,1,7.86,4.73l-10.39,14.06A13.4,13.4,0,0,0,807.56,310Z"/><path class="b8a1249d-05ca-4f57-a7af-b1d6b42815a2" d="M756.5,549.5h0Z"/><polygon class="addabcc3-8c4e-4e36-ab34-31c700e4f088" points="869 449 709 445 709 553 776.33 553 869 449"/><path class="addabcc3-8c4e-4e36-ab34-31c700e4f088" d="M1059,545l-289.26,5,90.8-101.17c6-6,105.08,36.27,105.08,36.27"/></svg>